<svg viewBox="0 0 40 40" xmlns="http://www.w3.org/2000/svg">
  <path d="M 23 19.97 C 23 21.625 21.657 22.966 20 22.966 C 18.343 22.966 17 21.625 17 19.97 C 17 18.316 18.343 16.975 20 16.975 C 21.657 16.975 23 18.316 23 19.97 Z M 10 2.676 C 23.042 -4.843 39.275 4.186 39.976 18.972 L 24.899 18.972 C 24.616 17.587 23.753 16.369 22.5 15.647 C 19.466 13.898 15.742 15.731 15.097 18.972 L 0.025 18.972 C 0.363 12.226 4.102 6.077 10 2.676 Z M 30.001 37.265 C 16.959 44.785 0.726 35.755 0.024 20.969 L 15.101 20.969 C 15.384 22.354 16.247 23.572 17.5 24.294 C 20.535 26.043 24.258 24.21 24.903 20.969 L 39.975 20.969 C 39.638 27.716 35.899 33.864 30.001 37.265 Z" />
</svg>
