<svg viewBox="0 0 40 40" xmlns="http://www.w3.org/2000/svg">
  <path d="M 10 2.68 C 23.042 -4.85 39.274 4.192 39.976 19 L 26.928 19 C 26.625 16.895 25.374 15.019 23.5 13.938 C 19.13 11.415 13.736 14.209 13.069 19 L 0.025 19 C 0.363 12.243 4.102 6.086 10 2.68 Z M 30.001 37.321 C 16.959 44.851 0.726 35.808 0.024 21 L 13.072 21 C 13.375 23.105 14.627 24.981 16.5 26.063 C 20.871 28.586 26.265 25.792 26.931 21 L 39.975 21 C 39.639 27.757 35.899 33.915 30.001 37.321 Z" />
  <circle cx="20" r="5" cy="20"/>
</svg>
